<svg id="Layer_1" data-name="Layer 1" xmlns="http://www.w3.org/2000/svg" viewBox="0 0 310.49 117.3"><defs><style>.cls-1,.cls-3{fill:#2c368d;}.cls-2{fill:#fff;}.cls-3{font-size:36.48px;font-family:DunkinSans, Dunkin Sans;}</style></defs><title>logo</title><rect class="cls-1" width="112.52" height="112.52" rx="22.68"/><rect class="cls-2" x="41.08" y="13.7" width="16.86" height="16.86" rx="8.43"/><path class="cls-2" d="M52.55,43.62,39.82,30a9.84,9.84,0,0,0-8.59-3.14,6.28,6.28,0,0,0-5.58,5.33,10.68,10.68,0,0,0,2.62,9.2l18,20.12a9.06,9.06,0,0,0,4.18,2.73,7.78,7.78,0,0,0,6.39-.89,10.26,10.26,0,0,0,1.94-1.6l35-36.45a9.18,9.18,0,0,0,2-9.79,6.66,6.66,0,0,0-6.34-4.3,10.76,10.76,0,0,0-8.06,3.31Z" transform="translate(-3.02 -3.22)"/><path class="cls-2" d="M60.05,65.54s-7.47,8.64-15,0V98.88A9.07,9.07,0,0,0,49.7,107a6.11,6.11,0,0,0,6.43-.21,8.8,8.8,0,0,0,3.92-7.47Z" transform="translate(-3.02 -3.22)"/><path class="cls-1" d="M165.37,13.94a5.18,5.18,0,0,0-3-3.07,7.17,7.17,0,0,0-8.24,2.05l-9,10.78L135.11,12.56a6.87,6.87,0,0,0-6.86-1.73,4.85,4.85,0,0,0-3.42,3.65,6.56,6.56,0,0,0,1.54,5.72l12.74,14.2L139,53.83a7,7,0,0,0,5.13,6.71,5.31,5.31,0,0,0,3.67-.32,5.53,5.53,0,0,0,3-5v-21l13.25-14.44A5.78,5.78,0,0,0,165.37,13.94Z" transform="translate(-3.02 -3.22)"/><path class="cls-1" d="M174.1,14.37v41s-.27,4.57,3.87,5.3h21.09a7.2,7.2,0,0,0,6.39-3.63,4.72,4.72,0,0,0-.47-5.47,7.07,7.07,0,0,0-5.65-2.68H185V43.26h13.79a7.19,7.19,0,0,0,6.48-3.79,4.94,4.94,0,0,0-.46-5.55,6.79,6.79,0,0,0-5.46-2.64l-14.08-.08V21.39l14.49-.15A6.46,6.46,0,0,0,205.41,18a4.38,4.38,0,0,0-.19-4.67,6.7,6.7,0,0,0-5.7-3h-21.2a4.15,4.15,0,0,0-4.19,3.53A4.41,4.41,0,0,0,174.1,14.37Z" transform="translate(-3.02 -3.22)"/><path class="cls-1" d="M215.11,37.27v17a6.8,6.8,0,0,0,3.61,6.13,4.5,4.5,0,0,0,4.84-.24A6.26,6.26,0,0,0,226.15,55V37.13a5.7,5.7,0,0,0-4.64-5.69,5.41,5.41,0,0,0-1.56,0A5.82,5.82,0,0,0,215.11,37.27Z" transform="translate(-3.02 -3.22)"/><rect class="cls-1" x="210.67" y="7.11" width="14.26" height="14.26" rx="7.13"/><path class="cls-1" d="M262.77,11.31a7.58,7.58,0,0,0-3.83-1.12H241.51a5.06,5.06,0,0,0-2.61.68,3.57,3.57,0,0,0-1.8,3.19V54.52a6.4,6.4,0,0,0,3.35,5.75,4.55,4.55,0,0,0,4.8-.23,6.26,6.26,0,0,0,2.74-5.3V43l9.58.13a13.61,13.61,0,0,0,7.78-2.32C272.33,36.07,279.13,20.91,262.77,11.31ZM260.86,28.6a4.51,4.51,0,0,1-3.7,1.77h-8.84v-8h8.29a5.06,5.06,0,0,1,4.49,2.55A3.22,3.22,0,0,1,260.86,28.6Z" transform="translate(-3.02 -3.22)"/><path class="cls-1" d="M280.55,37.12v17a6.79,6.79,0,0,0,3.61,6.12A4.52,4.52,0,0,0,289,60a6.26,6.26,0,0,0,2.59-5.19V37A5.69,5.69,0,0,0,287,31.3a5.07,5.07,0,0,0-1.56,0A5.8,5.8,0,0,0,280.55,37.12Z" transform="translate(-3.02 -3.22)"/><rect class="cls-1" x="276.11" y="6.96" width="14.26" height="14.26" rx="7.13"/><path class="cls-1" d="M300.27,37.12v17a6.79,6.79,0,0,0,3.61,6.12,4.52,4.52,0,0,0,4.84-.23,6.26,6.26,0,0,0,2.59-5.19V37a5.69,5.69,0,0,0-4.64-5.69,5.07,5.07,0,0,0-1.56,0A5.8,5.8,0,0,0,300.27,37.12Z" transform="translate(-3.02 -3.22)"/><rect class="cls-1" x="295.83" y="6.96" width="14.26" height="14.26" rx="7.13"/><path class="cls-1" d="M313.34,83.79a2.93,2.93,0,0,0-1.68-1.72A4,4,0,0,0,307,83.22L302,89.3,296.28,83a3.89,3.89,0,0,0-3.87-1,2.77,2.77,0,0,0-1.93,2.06,3.7,3.7,0,0,0,.88,3.22l7.17,8-.06,11a3.92,3.92,0,0,0,2.89,3.78,3,3,0,0,0,2.07-.17,3.12,3.12,0,0,0,1.7-2.84V95.22l7.47-8.14A3.28,3.28,0,0,0,313.34,83.79Z" transform="translate(-3.02 -3.22)"/><text class="cls-3" transform="translate(128.41 106.61) scale(0.96 1)">D L</text><path class="cls-1" d="M203.51,96.8v9.51a3.8,3.8,0,0,0,2,3.42,2.51,2.51,0,0,0,2.7-.13,3.49,3.49,0,0,0,1.45-2.9v-10a3.06,3.06,0,0,0-3.46-3.19A3.24,3.24,0,0,0,203.51,96.8Z" transform="translate(-3.02 -3.22)"/><rect class="cls-1" x="199.7" y="78.53" width="7.97" height="7.97" rx="3.76"/><text class="cls-3" transform="translate(264.85 106.61) scale(0.96 1)">R</text><path class="cls-1" d="M244.55,84v23.06s-.15,2.56,2.18,3h11.85a4.06,4.06,0,0,0,3.59-2,2.66,2.66,0,0,0-.26-3.08,4,4,0,0,0-3.18-1.5h-8.06v-3.19h7.75a4,4,0,0,0,3.64-2.13,2.8,2.8,0,0,0-.25-3.12,3.83,3.83,0,0,0-3.08-1.48l-7.91,0V88l8.14-.09a3.62,3.62,0,0,0,3.19-1.82,2.45,2.45,0,0,0-.11-2.62,3.77,3.77,0,0,0-3.21-1.69H246.92a2.33,2.33,0,0,0-2.35,2C244.56,83.83,244.55,83.93,244.55,84Z" transform="translate(-3.02 -3.22)"/><text class="cls-3" transform="translate(210.09 106.61) scale(0.96 1)">V</text><path class="cls-1" d="M155.92,84v23s-.16,2.56,2.16,3h11.8a4.05,4.05,0,0,0,3.58-2,2.64,2.64,0,0,0-.27-3.06,3.93,3.93,0,0,0-3.16-1.5h-8v-3.17h7.71a4,4,0,0,0,3.63-2.12,2.79,2.79,0,0,0-.26-3.11A3.85,3.85,0,0,0,170,93.47l-7.87,0V87.94l8.1-.08A3.62,3.62,0,0,0,173.43,86a2.43,2.43,0,0,0-.11-2.61,3.74,3.74,0,0,0-3.19-1.68H158.28a2.33,2.33,0,0,0-2.35,2A2.71,2.71,0,0,0,155.92,84Z" transform="translate(-3.02 -3.22)"/></svg>